<svg width="273" height="88" viewBox="0 0 273 88" fill="none" xmlns="http://www.w3.org/2000/svg">
<rect width="273" height="88" fill="white"/>
<path d="M128.199 32.979C129.99 32.12 132.868 31.8336 135.277 32.3052C136.733 32.5747 137.403 32.8105 138.524 33.4507C139.612 34.0569 139.93 34.0402 140.231 33.3159C140.516 32.6421 140.967 32.3894 141.754 32.5073C142.256 32.5915 142.323 32.6755 142.574 33.5513C142.725 34.0735 142.959 34.8486 143.076 35.2866C143.21 35.7242 143.31 36.1787 143.311 36.314C143.311 36.4487 143.411 36.9375 143.545 37.3755C144.198 39.6497 144.331 40.2732 144.281 40.8628C144.231 41.4523 144.164 41.5365 143.562 41.7554C142.624 42.0754 142.357 42.0418 142.089 41.604C141.035 39.852 140.331 38.8748 139.461 37.9819C138.189 36.685 137.202 35.9938 135.696 35.3706C134.642 34.9326 134.324 34.8657 132.684 34.8657C130.977 34.8489 130.759 34.8821 129.755 35.3706C127.764 36.2971 126.693 37.9314 127.111 39.397C127.613 41.0983 129.22 42.1931 132.851 43.2544C133.403 43.4228 134.156 43.6592 134.524 43.7602C134.893 43.8782 135.646 44.1135 136.198 44.2651C138.675 45.0063 138.876 45.0911 141.151 46.186C143.143 47.1294 144.046 47.9721 144.85 49.5893C146.004 51.9309 145.586 55.0643 143.796 57.3384C141.62 60.1011 136.85 61.6169 132.733 60.8589C130.843 60.5051 129.939 60.1344 128.132 58.9722C127.563 58.6015 127.027 58.3484 126.943 58.3989C126.86 58.4497 126.659 58.9052 126.492 59.4272C126.208 60.3873 125.889 60.6899 125.203 60.6899C124.45 60.6899 124.25 60.3533 123.898 58.4165C123.714 57.3892 123.497 56.1764 123.413 55.7212C123.329 55.2495 123.128 54.272 122.994 53.5307C122.626 51.5788 122.509 50.2993 122.659 50.1958C122.743 50.1453 123.228 50.061 123.747 49.9936L124.685 49.8755L125.371 51.2905C127.68 56.0913 131.88 58.7699 136.131 58.1636C140.515 57.5403 142.875 53.6489 140.465 51.021C139.846 50.3473 137.605 49.0676 137.035 49.0669C136.901 49.0669 136.65 48.999 136.482 48.8979C136.331 48.8135 134.574 48.2918 132.6 47.7192C128.416 46.5401 126.71 45.7815 125.287 44.4507C122.777 42.1091 122.425 38.3191 124.45 35.6069C124.868 35.068 126.909 33.4008 127.178 33.3999C127.245 33.3999 127.697 33.2148 128.199 32.979ZM199.288 32.3052C200.878 32.0188 203.388 32.019 204.811 32.2886C208.977 33.0973 212.642 35.8599 214.517 39.6333C215.688 41.9748 216.223 45.1249 215.938 47.938C215.621 51.1049 215.001 52.9409 213.596 55.0298C211.437 58.2136 208.224 60.219 204.392 60.7749C197.246 61.8192 191.656 58.9719 188.812 52.8569C187.523 50.1111 187.155 46.5734 187.824 43.4233C188.176 41.6883 188.377 41.1492 189.146 39.6333C189.866 38.2183 190.201 37.7465 191.339 36.5337C193.314 34.4279 196.36 32.8105 199.288 32.3052ZM219.671 32.6929C219.955 32.4065 227.905 32.4397 228.239 32.7261C228.424 32.8788 229.428 34.4797 231.185 37.4097C232.457 39.5325 235.418 44.4173 236.271 45.7817C236.84 46.7079 237.409 47.6509 237.526 47.8872C237.644 48.123 238.062 48.8139 238.464 49.4204C238.865 50.0268 239.351 50.8523 239.535 51.2397C239.736 51.6103 239.97 51.9302 240.054 51.9302C240.137 51.9235 240.204 48.5567 240.204 43.9624V35.9946L239.735 35.4888C239.351 35.0509 239.083 34.9326 238.263 34.8315C237.728 34.7642 237.176 34.6296 237.075 34.5454C236.807 34.3264 236.79 32.7942 237.024 32.6421C237.125 32.5747 239.217 32.5405 241.677 32.5405C246.596 32.5574 246.563 32.5577 246.563 33.6186C246.563 34.3934 246.279 34.7474 245.677 34.7475C244.639 34.7475 243.903 35.0676 243.602 35.6401C243.317 36.1455 243.3 37.1229 243.25 48.2241C243.2 61.9524 243.367 60.6901 241.627 60.6899C240.857 60.6899 240.522 60.623 240.338 60.3872C240.187 60.2356 239.234 58.7022 238.196 56.9839C237.159 55.266 236.088 53.4812 235.786 53.0259C235.502 52.5542 235.184 52.0315 235.066 51.8462C234.363 50.6499 230.164 43.7776 228.641 41.3179C227.637 39.7007 226.766 38.2515 226.716 38.1167C226.548 37.7462 226.114 37.2752 225.946 37.2749C225.879 37.2749 225.812 41.6716 225.812 47.0454C225.813 55.4499 225.846 56.8994 226.063 57.3208C226.398 57.9609 226.783 58.1636 228.038 58.2983L229.075 58.4165V60.6059L224.39 60.6567C219.202 60.7073 219.286 60.7239 219.286 59.5952C219.286 58.7025 219.637 58.3997 220.825 58.2817C221.679 58.1975 221.947 58.1132 222.248 57.7427L222.633 57.3042V46.3882C222.633 33.8043 222.816 34.9836 220.858 34.7983C220.223 34.7478 219.655 34.6132 219.587 34.5122C219.369 34.209 219.437 32.9289 219.671 32.6929ZM173.5 32.5405C173.585 32.4903 182.239 32.4901 183.926 32.5405C184.344 32.5579 184.561 33.2823 184.41 34.1411C184.31 34.697 184.293 34.6973 183.105 34.7983C182.118 34.8825 181.834 34.9837 181.482 35.3374L181.047 35.7583V57.3208L181.465 57.7427C181.8 58.0795 182.151 58.1973 183.038 58.2983C184.293 58.4499 184.478 58.6183 184.478 59.5278C184.478 60.7407 184.678 60.7073 178.788 60.6567L173.517 60.6059V58.4165L174.654 58.3149C176.512 58.1633 176.495 58.1803 176.662 53.9858C176.88 48.4941 176.73 36.1121 176.462 35.5561C176.194 35.0171 175.441 34.7476 174.236 34.7475H173.433V33.686C173.433 33.0966 173.467 32.5742 173.5 32.5405ZM167.727 32.0356C168.296 31.3788 169.282 31.3452 169.667 31.9516C169.935 32.3395 171.107 35.5056 171.458 36.769C171.542 37.0891 171.693 37.426 171.776 37.5102C171.86 37.6114 171.927 37.8306 171.927 38.0327C171.927 38.218 172.044 38.5552 172.194 38.7573C172.345 38.9763 172.429 39.3801 172.396 39.7505C172.345 40.3064 172.278 40.3911 171.759 40.5259C171.441 40.5932 171.006 40.7107 170.822 40.7612C170.504 40.8286 170.353 40.6606 169.768 39.5151C168.111 36.3481 166.973 35.4885 163.844 35.0337C162.74 34.8653 162.455 34.8823 162.087 35.1011L161.635 35.354L161.585 45.8657C161.568 51.6607 161.585 56.6308 161.635 56.9341C161.802 57.894 162.171 58.1636 163.56 58.2983L164.814 58.4165L164.965 59.0561C165.065 59.4434 165.065 59.8645 164.965 60.1509L164.814 60.6059L159.593 60.6567C153.753 60.7073 153.854 60.7239 153.854 59.5278C153.854 58.5677 154.154 58.2815 155.125 58.2983C156.246 58.3152 156.798 58.0625 157.1 57.4057C157.334 56.9172 157.367 55.5355 157.367 46.2368C157.367 34.6131 157.417 35.2358 156.396 34.9663C155.61 34.7812 153.066 35.3882 152.112 35.9946C150.841 36.8202 149.184 38.8922 148.899 40.0376C148.732 40.7279 148.314 40.8623 147.344 40.5425C146.892 40.3909 146.473 40.1721 146.423 40.0542C146.339 39.8184 147.075 37.5106 148.163 34.5796C148.464 33.7878 148.732 32.9619 148.782 32.7261C149.033 31.5301 150.322 31.1428 151.108 32.0522L151.561 32.5581L167.308 32.5239L167.727 32.0356ZM66.833 32.5581C69.6617 32.457 80.4551 32.5073 81.8105 32.6421C84.7386 32.9116 86.0272 33.2988 87.5498 34.3599C89.0894 35.4211 89.9094 36.7356 90.2441 38.6391C90.4282 39.7004 90.178 41.301 89.6592 42.3286C89.3077 43.0193 87.6168 44.7712 87.0479 45.0239C86.8469 45.125 86.4454 45.3265 86.1611 45.478L85.6758 45.7475L86.2451 46.0005C88.9894 47.1796 89.9267 47.9716 90.7969 49.8413C91.2654 50.8688 91.2984 51.0039 91.2314 52.8061C91.1812 54.5242 91.1313 54.811 90.6963 55.6362C89.5751 57.8093 87.7677 59.1738 85.1572 59.8813C83.2495 60.4036 80.8731 60.522 72.7568 60.522C63.787 60.522 64.4902 60.6226 64.4902 59.3423C64.4903 59.0055 64.5899 58.6347 64.707 58.5337C64.8074 58.4495 65.3765 58.3321 65.9453 58.2983C67.1501 58.2141 67.5859 57.9109 67.8369 57.0015C68.0545 56.176 68.0545 36.7351 67.8369 35.9097C67.5859 35.0339 67.3178 34.8828 65.8955 34.7817C64.5067 34.6975 64.4063 34.5961 64.5234 33.2993L64.5732 32.6421L66.833 32.5581ZM105.139 32.5913C105.641 32.4062 108.133 32.4906 108.401 32.7095C108.519 32.8105 108.987 33.872 109.405 35.0513C110.426 37.8138 110.661 38.437 110.929 39.0434C111.23 39.7014 114.694 49.1848 114.694 49.3364C114.695 49.3875 114.794 49.6736 114.928 49.9595C115.045 50.2627 115.28 50.8352 115.447 51.2563C115.598 51.6775 115.832 52.2676 115.966 52.5708C116.066 52.7982 116.148 53.0352 116.183 53.1821L116.218 53.4087C116.252 53.5548 116.334 53.788 116.435 54.0024C116.552 54.3057 116.937 55.2153 117.288 56.0239C117.974 57.6242 118.409 58.0957 119.363 58.2641C120.166 58.4158 120.551 58.7703 120.551 59.4272C120.551 60.5555 120.668 60.5383 115.196 60.4878L110.259 60.438V58.4165L111.297 58.3149C112.502 58.197 112.854 57.978 112.854 57.3042C112.853 56.6974 110.947 50.9591 110.645 50.6675C110.377 50.3979 110.092 50.3811 105.155 50.3979C101.274 50.4148 101.222 50.4143 100.988 50.7847C100.854 51.0037 100.687 51.3918 100.62 51.6782C100.553 51.9478 100.386 52.4865 100.235 52.8569C100.101 53.2275 99.8336 53.9521 99.6328 54.4575C98.6959 56.9163 98.5953 57.2872 98.7959 57.6577C99.0302 58.0957 99.6164 58.3315 100.453 58.3315C100.787 58.3316 101.155 58.416 101.272 58.5337C101.54 58.8032 101.54 60.0503 101.272 60.3198C101.121 60.4713 99.9662 60.522 97.1055 60.522C93.2245 60.522 93.1229 60.505 92.8721 60.1684C92.621 59.7978 92.6714 58.9553 92.9727 58.5679C93.0565 58.45 93.4411 58.3147 93.8594 58.2641C94.2609 58.1967 94.7628 57.9951 94.9971 57.8266C95.4154 57.4897 96.2527 55.5694 97.876 51.0884C97.9931 50.7683 98.3277 49.8921 98.6289 49.1509C98.9301 48.4097 99.2812 47.5 99.415 47.1294C100.017 45.5459 100.185 45.0742 100.402 44.5688C100.536 44.2825 100.637 43.9619 100.637 43.8608C100.637 43.7596 100.703 43.5407 100.804 43.3725C100.887 43.2209 101.272 42.1767 101.657 41.0649C102.042 39.9531 102.427 38.9756 102.511 38.8745C102.578 38.7903 102.644 38.6224 102.645 38.4878C102.645 38.353 102.745 38.0154 102.879 37.729C103.096 37.1899 103.465 36.2469 103.934 35.0005C104.084 34.6299 104.285 34.0903 104.419 33.8208C104.536 33.5345 104.67 33.1806 104.72 33.0122C104.77 32.8606 104.955 32.6586 105.139 32.5913ZM45.9141 35.2534C46.3324 35.2534 46.7676 35.3376 46.8848 35.4556C47.0353 35.6086 47.0859 38.5908 47.0859 47.8198C47.0859 58.6663 47.0525 60.0162 46.8184 60.2524C46.5171 60.5725 45.2446 60.623 44.9434 60.3198C44.6591 60.0277 44.6592 35.7604 44.9434 35.4556C45.0605 35.3377 45.4958 35.2534 45.9141 35.2534ZM36.3926 35.4722C36.6605 35.1522 38.1322 35.1861 38.4502 35.5229C38.6845 35.7588 38.7187 37.1061 38.7188 47.8872V59.9995L38.3506 60.2524C37.882 60.5893 36.6436 60.6057 36.3926 60.2856C36.1249 59.9623 36.1248 35.809 36.3926 35.4722ZM33.1963 30.0307C33.6145 30.0308 34.0499 30.115 34.167 30.2329C34.3175 30.3873 34.3672 33.9775 34.3672 45.31V60.185L33.9326 60.353C33.3471 60.5888 32.4602 60.5555 32.2256 60.3198C31.9411 60.0334 31.9411 30.5193 32.2256 30.2329C32.343 30.1151 32.7781 30.0307 33.1963 30.0307ZM49.127 30.2329C49.4282 29.9297 50.7675 29.98 51.1357 30.3169C51.4202 30.5696 51.4365 31.2608 51.4365 45.2934V59.9995L51.0684 60.2524C50.6332 60.5555 49.7294 60.6057 49.2441 60.353C48.9266 60.1845 48.9268 59.8246 48.9268 45.31C48.9268 33.9599 48.9765 30.3868 49.127 30.2329ZM53.3447 35.438C53.5134 35.1857 55.169 35.203 55.4199 35.4556C55.5703 35.6113 55.6201 38.6126 55.6201 47.9214C55.6201 59.8601 55.6203 60.1845 55.3027 60.353C54.8344 60.5888 53.6802 60.5556 53.4619 60.3032C53.2611 60.0337 53.1439 35.7749 53.3447 35.438ZM40.6934 30.2163C41.0617 29.9805 42.1657 29.9807 42.584 30.1997C42.9018 30.3682 42.9023 30.7229 42.9023 45.1919V59.9995L42.5342 60.2524C42.0489 60.5893 41.2451 60.5893 40.7598 60.2524L40.3916 59.9995V45.1919C40.3916 31.2606 40.4089 30.3679 40.6934 30.2163ZM57.2939 45.2759C57.2939 28.599 57.1605 30.0307 58.7168 30.0307C59.436 30.0308 59.6531 30.0985 59.8037 30.3511C59.9209 30.5701 59.9717 35.5561 59.9717 45.3432V59.9995L59.6035 60.2524C59.1182 60.5893 58.1474 60.5893 57.6621 60.2524L57.2939 59.9995V45.2759ZM205.312 35.2026C204.359 34.8657 201.413 34.6968 200.208 34.8989C196.593 35.5391 194 38.1843 192.762 42.4966C192.31 44.0464 192.292 49.1342 192.728 50.7515C193.999 55.5019 197.447 58.4668 201.731 58.5005C205.179 58.5172 207.772 56.8995 209.529 53.6147C209.998 52.7389 210.182 52.2841 210.868 50.0776C211.27 48.7468 211.27 44.0293 210.852 42.5806C209.613 38.3189 208.007 36.1965 205.312 35.2026ZM77.124 47.2641C72.925 47.1799 72.573 47.197 72.3555 47.4663C72.1547 47.719 72.1045 48.5446 72.1045 52.1665C72.1045 57.001 72.1879 57.5566 73.0078 57.7925C73.6939 57.9778 80.3208 57.8943 81.7266 57.6753C83.9355 57.3384 85.3748 56.3442 86.2617 54.5923C86.5462 54.0195 86.6299 53.5813 86.6299 52.52C86.6299 50.9029 86.2451 49.9089 85.2578 49.0161C83.668 47.5674 82.7636 47.3652 77.124 47.2641ZM105.976 37.5444C105.909 37.4771 105.691 37.7629 105.507 38.2007C105.306 38.6384 105.155 39.0934 105.155 39.1948C105.155 39.2959 105.038 39.5322 104.904 39.7007C104.77 39.886 104.653 40.189 104.653 40.3911C104.653 40.5929 104.586 40.8114 104.503 40.896C104.419 40.9971 104.268 41.3347 104.185 41.6548C104.084 41.9753 103.599 43.4071 103.097 44.8218C102.578 46.2536 102.21 47.5171 102.26 47.6518C102.327 47.837 102.98 47.8872 105.925 47.8872C110.008 47.8872 109.773 48.0055 109.154 46.3716C108.97 45.8663 108.753 45.2598 108.669 45.0239C108.602 44.7881 108.469 44.417 108.368 44.1811C108.268 43.9446 107.715 42.3953 107.146 40.728C106.578 39.0631 106.044 37.633 105.976 37.5444ZM77.2754 35.3032C73.0248 35.219 72.5557 35.2361 72.3047 35.4888C72.0537 35.7583 72.0205 36.2471 72.0205 39.936C72.0205 43.44 72.0538 44.1648 72.2881 44.4849C72.539 44.8385 72.6233 44.855 75.7686 44.855C79.3662 44.855 81.7262 44.569 82.8643 44.0132C84.6214 43.154 85.5926 41.6206 85.6094 39.7339C85.6093 38.3863 85.2072 37.426 84.3203 36.6343C82.9984 35.472 82.5631 35.3874 77.2754 35.3032Z" fill="#3D2C56"/>
</svg>
