<svg width="42" height="42" viewBox="0 0 42 42" fill="none" xmlns="http://www.w3.org/2000/svg">
<path d="M15.2686 2C9.9361 2.1215 6.8214 2.62912 4.69328 4.74985C2.83073 6.60594 2.20812 9.21513 2 13.4M26.7314 2C32.0639 2.1215 35.1786 2.62912 37.3067 4.74985C39.1693 6.60594 39.7919 9.21513 40 13.4M26.7314 40C32.0639 39.8785 35.1786 39.3709 37.3067 37.2501C39.1693 35.3941 39.7919 32.7849 40 28.6M15.2686 40C9.9361 39.8785 6.8214 39.3709 4.69328 37.2501C2.83073 35.3941 2.20812 32.7849 2 28.6" stroke="#141B34" stroke-width="3" stroke-linecap="round" stroke-linejoin="round"/>
<path d="M29 21C29 25.4183 25.4183 29 21 29C16.5817 29 13 25.4183 13 21C13 16.5817 16.5817 13 21 13C25.4183 13 29 16.5817 29 21Z" stroke="#141B34" stroke-width="3" stroke-linecap="round" stroke-linejoin="round"/>
</svg>
