<svg width="32" height="32" viewBox="0 0 32 32" fill="none" xmlns="http://www.w3.org/2000/svg">
<path d="M2.74795 16.8981C2.82934 16.8976 2.91072 16.897 2.99456 16.8965C3.0827 16.8964 3.17084 16.8963 3.26164 16.8962C3.35538 16.8958 3.44912 16.8953 3.5457 16.8948C3.85552 16.8935 4.16532 16.8929 4.47514 16.8924C4.69099 16.8919 4.90684 16.8913 5.1227 16.8908C5.57535 16.8898 6.02801 16.8893 6.48067 16.889C7.05927 16.8885 7.63786 16.8863 8.21646 16.8837C8.66247 16.882 9.10848 16.8815 9.55449 16.8814C9.76772 16.8811 9.98094 16.8804 10.1942 16.8792C10.4933 16.8776 10.7923 16.8778 11.0914 16.8784C11.1786 16.8776 11.2658 16.8767 11.3557 16.8759C12.1426 16.8807 12.8877 17.0084 13.4846 17.5547C13.5568 17.6178 13.6289 17.6809 13.7032 17.7459C14.2272 18.4141 14.3247 19.1254 14.318 19.9525C14.3187 20.0518 14.3193 20.151 14.32 20.2533C14.3216 20.5789 14.3205 20.9044 14.3193 21.2299C14.3195 21.4576 14.3199 21.6853 14.3203 21.913C14.3209 22.4498 14.3197 22.9867 14.3177 23.5236C14.3164 23.9506 14.3168 24.3775 14.3184 24.8045C14.3205 25.3955 14.3208 25.9864 14.3196 26.5773C14.3194 26.8018 14.3197 27.0263 14.3206 27.2508C14.3215 27.565 14.3201 27.879 14.318 28.1931C14.3188 28.2851 14.3195 28.377 14.3203 28.4717C14.3107 29.2738 14.0748 29.9402 13.5237 30.534C12.8867 31.0838 12.2123 31.1988 11.3963 31.1907C11.2954 31.1915 11.1945 31.1923 11.0905 31.1932C10.7594 31.1951 10.4285 31.1938 10.0975 31.1923C9.86591 31.1926 9.63436 31.193 9.40281 31.1936C8.91853 31.1943 8.43428 31.1934 7.95001 31.1912C7.39229 31.1887 6.83465 31.1895 6.27693 31.192C5.73763 31.1943 5.19835 31.1941 4.65904 31.1927C4.4308 31.1924 4.20256 31.1928 3.97433 31.1939C3.65473 31.195 3.33528 31.1933 3.0157 31.1907C2.92238 31.1917 2.82906 31.1926 2.73292 31.1935C1.93444 31.1819 1.29913 30.9222 0.699501 30.3911C0.0981175 29.7365 -0.00437283 28.8786 0.00280825 28.025C0.00216929 27.9296 0.00153033 27.8341 0.000872008 27.7358C-0.00071959 27.4234 0.00032508 27.1112 0.00156193 26.7988C0.00131595 26.5799 0.000961774 26.361 0.000504789 26.142C-3.11174e-05 25.6844 0.000743251 25.2268 0.00245216 24.7693C0.00452951 24.1847 0.00333243 23.6003 0.00114951 23.0157C-0.000172449 22.564 0.000253236 22.1123 0.00119611 21.6606C0.00143815 21.4451 0.00114508 21.2297 0.000291968 21.0143C-0.000641263 20.7124 0.000787568 20.4106 0.00280825 20.1088C0.00207014 20.021 0.00133203 19.9333 0.000571556 19.8429C0.0106486 19.0242 0.218356 18.2038 0.793865 17.5946C1.3634 17.1303 2.01797 16.9009 2.74795 16.8981ZM2.42013 19.4634C2.3928 19.6352 2.3928 19.6352 2.3976 19.8342C2.39721 19.9118 2.39683 19.9894 2.39644 20.0693C2.39695 20.1546 2.39746 20.2399 2.39799 20.3278C2.39782 20.4175 2.39764 20.5072 2.39747 20.5996C2.39713 20.897 2.3981 21.1945 2.39912 21.492C2.39923 21.698 2.39927 21.9039 2.39925 22.1098C2.39939 22.5418 2.40015 22.9738 2.40137 23.4058C2.40292 23.9609 2.40327 24.516 2.4032 25.071C2.40323 25.4964 2.40372 25.9217 2.40439 26.347C2.40468 26.5518 2.40486 26.7565 2.40492 26.9613C2.40512 27.2468 2.40592 27.5323 2.40689 27.8178C2.40685 27.9033 2.40681 27.9888 2.40677 28.0768C2.37077 28.4487 2.37077 28.4487 2.51129 28.7616C2.63351 28.7703 2.75619 28.7727 2.87871 28.7726C2.95784 28.7727 3.03697 28.7728 3.1185 28.773C3.24971 28.7725 3.24971 28.7725 3.38356 28.772C3.47516 28.772 3.56675 28.772 3.66112 28.772C3.96546 28.7719 4.26979 28.7712 4.57413 28.7705C4.78451 28.7703 4.9949 28.7702 5.20528 28.7701C5.76023 28.7698 6.31518 28.7689 6.87013 28.7679C7.43593 28.7669 8.00172 28.7665 8.56752 28.7661C9.67858 28.7651 10.7896 28.7635 11.9007 28.7616C11.9028 27.539 11.9044 26.3163 11.9054 25.0937C11.9059 24.526 11.9066 23.9583 11.9076 23.3907C11.9086 22.8433 11.9091 22.296 11.9094 21.7487C11.9095 21.5394 11.9099 21.33 11.9103 21.1207C11.911 20.8286 11.9111 20.5366 11.9111 20.2445C11.9116 20.1133 11.9116 20.1133 11.9121 19.9794C11.9119 19.8607 11.9119 19.8607 11.9117 19.7396C11.9118 19.6705 11.9118 19.6013 11.9119 19.5301C11.9178 19.3694 11.9178 19.3694 11.8096 19.281C11.5247 19.2714 11.2418 19.2677 10.9569 19.2678C10.8674 19.2675 10.7779 19.2672 10.6856 19.2669C10.3881 19.266 10.0905 19.2658 9.79301 19.2657C9.58715 19.2654 9.38129 19.2651 9.17543 19.2648C8.74328 19.2643 8.31114 19.2641 7.87899 19.2641C7.32401 19.2642 6.76905 19.2629 6.21407 19.2613C5.78874 19.2603 5.3634 19.2601 4.93807 19.2602C4.7334 19.2601 4.52873 19.2597 4.32406 19.259C4.03833 19.2581 3.75262 19.2583 3.46689 19.2589C3.38159 19.2584 3.2963 19.2579 3.20842 19.2573C3.13083 19.2577 3.05324 19.2581 2.9733 19.2585C2.90569 19.2584 2.83808 19.2584 2.76842 19.2583C2.57962 19.2671 2.57962 19.2671 2.42013 19.4634Z" fill="white"/>
<path d="M2.66428 0.0335888C2.78885 0.032808 2.78885 0.032808 2.91594 0.0320114C3.00593 0.0319095 3.09591 0.0318076 3.18862 0.0317026C3.33212 0.0310237 3.33212 0.0310237 3.47851 0.0303311C3.79468 0.0290008 4.11085 0.0283786 4.42702 0.0278746C4.64718 0.0273501 4.86734 0.0268252 5.0875 0.0263C5.54912 0.0253427 6.01074 0.0248096 6.47236 0.0244918C7.06283 0.023992 7.65328 0.0218019 8.24375 0.0192071C8.69859 0.0175063 9.15343 0.0170344 9.60827 0.0168949C9.8259 0.0166196 10.0435 0.0158896 10.2612 0.0146902C10.5662 0.0131293 10.8711 0.0133078 11.1761 0.013898C11.2654 0.013058 11.3546 0.012218 11.4466 0.0113525C12.2278 0.0160701 12.8887 0.156935 13.4789 0.695902C13.5518 0.760062 13.6248 0.824223 13.7 0.890328C14.2325 1.53598 14.3245 2.17825 14.318 2.99483C14.3186 3.09499 14.3193 3.19515 14.3199 3.29835C14.3215 3.62736 14.3205 3.95629 14.3192 4.2853C14.3195 4.51516 14.3198 4.74502 14.3203 4.97487C14.3208 5.45578 14.3201 5.93667 14.3183 6.41758C14.3164 6.97171 14.317 7.5258 14.319 8.07993C14.3209 8.61539 14.3207 9.15083 14.3196 9.6863C14.3194 9.91308 14.3197 10.1399 14.3205 10.3667C14.3214 10.6841 14.32 11.0014 14.318 11.3188C14.3187 11.4118 14.3195 11.5047 14.3202 11.6004C14.3103 12.4433 14.0621 13.1221 13.4504 13.7203C12.9651 14.0361 12.5226 14.2773 11.9352 14.2813C11.8487 14.2821 11.7622 14.2829 11.6731 14.2837C11.5783 14.284 11.4835 14.2844 11.3859 14.2848C11.286 14.2856 11.186 14.2863 11.0831 14.2871C10.7516 14.2894 10.42 14.2909 10.0885 14.2922C9.91862 14.2929 9.91862 14.2929 9.74529 14.2937C9.26897 14.2956 8.79265 14.2973 8.31632 14.2984C7.6354 14.2998 6.95453 14.3029 6.27363 14.3081C5.73604 14.312 5.19846 14.3135 4.66085 14.314C4.43286 14.3147 4.20488 14.316 3.9769 14.3182C3.65703 14.3211 3.33729 14.3211 3.01741 14.3204C2.92394 14.3219 2.83047 14.3234 2.73417 14.325C1.97778 14.3185 1.40066 14.0956 0.813759 13.6163C0.759117 13.5529 0.704475 13.4894 0.648177 13.424C0.59189 13.3615 0.535602 13.299 0.477609 13.2346C0.0679863 12.5875 0.00987416 11.9284 0.0145569 11.1783C0.0140776 11.0826 0.0135984 10.9869 0.0131047 10.8883C0.0119079 10.5741 0.0126956 10.2599 0.0136221 9.94573C0.0134377 9.72609 0.0131722 9.50645 0.0128293 9.28682C0.0124269 8.82737 0.0130095 8.36793 0.0142898 7.90849C0.0158478 7.32089 0.0149502 6.73332 0.0133128 6.14572C0.0123225 5.69244 0.0126401 5.23917 0.0133478 4.78588C0.0135296 4.56928 0.0133084 4.35267 0.0126697 4.13606C0.0119717 3.83284 0.0130388 3.52968 0.0145569 3.22647C0.0140033 3.13779 0.0134497 3.04912 0.0128793 2.95776C0.0209596 2.08234 0.236564 1.31304 0.870378 0.684507C1.44579 0.260325 1.94569 0.0363031 2.66428 0.0335888ZM2.42009 2.59885C2.39275 2.77074 2.39275 2.77074 2.39755 2.9697C2.39717 3.04729 2.39678 3.12488 2.39639 3.20482C2.3969 3.29011 2.39742 3.37541 2.39794 3.46329C2.39777 3.55297 2.3976 3.64265 2.39742 3.73505C2.39708 4.03254 2.39806 4.33002 2.39908 4.62751C2.39919 4.83345 2.39923 5.0394 2.3992 5.24535C2.39935 5.67733 2.4001 6.10931 2.40133 6.5413C2.40288 7.09638 2.40322 7.65146 2.40315 8.20654C2.40318 8.63187 2.40368 9.05721 2.40434 9.48254C2.40463 9.68728 2.40481 9.89202 2.40488 10.0968C2.40507 10.3823 2.40587 10.6678 2.40685 10.9533C2.4068 11.0388 2.40676 11.1243 2.40672 11.2123C2.37073 11.5842 2.37073 11.5842 2.51125 11.8971C2.63347 11.9058 2.75614 11.9082 2.87867 11.9081C2.9578 11.9082 3.03693 11.9083 3.11845 11.9085C3.24966 11.908 3.24966 11.908 3.38351 11.9075C3.47511 11.9075 3.5667 11.9075 3.66107 11.9075C3.96541 11.9074 4.26975 11.9067 4.57408 11.906C4.78447 11.9058 4.99485 11.9057 5.20523 11.9056C5.76018 11.9053 6.31513 11.9044 6.87008 11.9034C7.43588 11.9024 8.00167 11.902 8.56747 11.9016C9.67854 11.9006 10.7896 11.899 11.9007 11.8971C11.9028 10.6745 11.9044 9.4518 11.9054 8.22915C11.9059 7.66149 11.9065 7.09383 11.9075 6.52616C11.9085 5.97884 11.9091 5.43151 11.9093 4.88419C11.9095 4.67486 11.9098 4.46554 11.9103 4.25621C11.911 3.96413 11.9111 3.67205 11.911 3.37996C11.9115 3.24876 11.9115 3.24876 11.912 3.1149C11.9118 2.99621 11.9118 2.99621 11.9116 2.87512C11.9117 2.80596 11.9118 2.7368 11.9119 2.66555C11.9178 2.50491 11.9178 2.50491 11.8095 2.41654C11.5246 2.40687 11.2418 2.40316 10.9569 2.40329C10.8673 2.40299 10.7778 2.40268 10.6856 2.40237C10.388 2.4015 10.0905 2.40132 9.79296 2.40122C9.5871 2.40093 9.38124 2.40062 9.17538 2.4003C8.74324 2.39976 8.31109 2.39959 7.87895 2.39964C7.32397 2.39965 6.769 2.39841 6.21403 2.39684C5.78869 2.39583 5.36336 2.39564 4.93802 2.39569C4.73335 2.39558 4.52868 2.39517 4.32401 2.39447C4.03828 2.39358 3.75257 2.39384 3.46684 2.39439C3.38155 2.39388 3.29625 2.39337 3.20837 2.39284C3.13078 2.39322 3.05319 2.3936 2.97325 2.394C2.90564 2.39395 2.83803 2.3939 2.76838 2.39385C2.57957 2.40261 2.57957 2.40261 2.42009 2.59885Z" fill="white"/>
<path d="M19.5275 0.0329649C19.6517 0.0319865 19.6517 0.0319865 19.7784 0.0309883C19.8681 0.0307432 19.9578 0.0304981 20.0502 0.0302455C20.1456 0.0296465 20.241 0.0290475 20.3392 0.0284303C20.6545 0.0266351 20.9698 0.025569 21.2851 0.0246593C21.3931 0.0242878 21.501 0.0239163 21.6122 0.0235335C22.1838 0.0216333 22.7553 0.020329 23.3268 0.0194737C23.9157 0.0184661 24.5045 0.0153309 25.0933 0.0117095C25.5473 0.00932039 26.0014 0.00856236 26.4555 0.00823548C26.6724 0.00779282 26.8894 0.00673671 27.1064 0.00504144C27.4109 0.00281003 27.7154 0.00290739 28.0199 0.00353866C28.1085 0.0023709 28.1971 0.00120314 28.2884 0C29.0234 0.00551748 29.6784 0.182174 30.3035 0.576245C31.0124 1.30607 31.1626 1.96915 31.1632 2.97069C31.164 3.07156 31.1647 3.17242 31.1655 3.27634C31.1677 3.60934 31.1685 3.94232 31.1691 4.27532C31.1699 4.50739 31.1708 4.73947 31.1716 4.97154C31.1731 5.45799 31.1738 5.94443 31.1741 6.43088C31.1744 6.99127 31.1771 7.55162 31.181 8.11201C31.1845 8.65306 31.1855 9.1941 31.1856 9.73516C31.186 9.96442 31.1872 10.1937 31.1891 10.4229C31.1915 10.7443 31.1911 11.0655 31.1899 11.3869C31.192 11.5277 31.192 11.5277 31.194 11.6714C31.1867 12.4021 31.0002 13.0037 30.5008 13.5518C29.8207 14.2075 29.1126 14.3081 28.2041 14.3026C28.1047 14.3031 28.0053 14.3036 27.9029 14.3041C27.5759 14.3053 27.249 14.3045 26.922 14.3036C26.6939 14.3037 26.4657 14.304 26.2375 14.3044C25.76 14.3048 25.2825 14.3042 24.8049 14.3029C24.2544 14.3014 23.7038 14.3019 23.1533 14.3034C22.6217 14.3048 22.0901 14.3046 21.5585 14.3038C21.3331 14.3037 21.1078 14.3039 20.8825 14.3045C20.5672 14.3052 20.252 14.3042 19.9368 14.3026C19.7979 14.3035 19.7979 14.3035 19.6563 14.3043C18.7803 14.2965 18.1959 14.0687 17.5511 13.4639C17.079 12.9435 16.9043 12.3562 16.9016 11.6604C16.9011 11.5791 16.9006 11.4977 16.9001 11.4138C16.8999 11.2816 16.8999 11.2816 16.8997 11.1467C16.8993 11.053 16.8988 10.9593 16.8984 10.8627C16.897 10.5529 16.8964 10.2431 16.8959 9.93326C16.8954 9.7174 16.8949 9.50155 16.8943 9.2857C16.8934 8.83304 16.8929 8.38039 16.8925 7.92773C16.892 7.34912 16.8898 6.77053 16.8872 6.19193C16.8855 5.74592 16.8851 5.29992 16.8849 4.8539C16.8847 4.64068 16.8839 4.42745 16.8827 4.21423C16.8812 3.91514 16.8814 3.6161 16.8819 3.31701C16.8811 3.2298 16.8803 3.14258 16.8794 3.05273C16.8844 2.23984 17.0425 1.49346 17.5639 0.850791C18.125 0.304972 18.7506 0.0371952 19.5275 0.0329649ZM19.2846 2.59884C19.2573 2.76892 19.2573 2.76892 19.262 2.96562C19.2617 3.04231 19.2613 3.119 19.2609 3.19801C19.2614 3.28231 19.2619 3.36661 19.2624 3.45346C19.2623 3.54211 19.2621 3.63076 19.2619 3.72209C19.2616 4.01618 19.2625 4.31026 19.2636 4.60435C19.2637 4.80803 19.2637 5.01172 19.2637 5.2154C19.2638 5.64272 19.2646 6.07002 19.2658 6.49733C19.2674 7.04607 19.2677 7.5948 19.2676 8.14354C19.2677 8.56426 19.2682 8.98499 19.2688 9.40571C19.2691 9.60809 19.2693 9.81046 19.2694 10.0128C19.2696 10.2953 19.2704 10.5777 19.2713 10.8602C19.2713 10.9445 19.2713 11.0288 19.2712 11.1156C19.2716 11.1923 19.272 11.269 19.2724 11.348C19.2725 11.4148 19.2727 11.4816 19.2729 11.5505C19.2747 11.7241 19.2747 11.7241 19.3757 11.8971C22.4742 11.8971 25.5728 11.8971 28.7652 11.8971C28.8686 11.6903 28.868 11.5776 28.8685 11.348C28.8689 11.2713 28.8693 11.1946 28.8697 11.1156C28.8696 11.0313 28.8696 10.947 28.8696 10.8602C28.8699 10.7715 28.8702 10.6829 28.8705 10.5915C28.8714 10.2974 28.8715 10.0034 28.8716 9.70928C28.8719 9.50559 28.8722 9.30191 28.8725 9.09822C28.8731 8.67091 28.8733 8.2436 28.8732 7.81629C28.8732 7.26755 28.8744 6.71882 28.876 6.17008C28.877 5.74936 28.8772 5.32864 28.8772 4.90792C28.8773 4.70554 28.8777 4.50316 28.8784 4.30078C28.8793 4.01833 28.879 3.73591 28.8785 3.45346C28.879 3.36916 28.8795 3.28487 28.88 3.19801C28.8796 3.12132 28.8792 3.04463 28.8789 2.96562C28.8789 2.8988 28.879 2.83198 28.879 2.76314C28.87 2.57582 28.87 2.57582 28.674 2.41652C28.5024 2.38894 28.5024 2.38894 28.3038 2.39337C28.2263 2.39286 28.1488 2.39235 28.069 2.39182C27.9413 2.39237 27.9413 2.39237 27.811 2.39293C27.7215 2.39261 27.6319 2.39229 27.5397 2.39197C27.2426 2.39116 26.9456 2.3917 26.6485 2.39231C26.4428 2.39219 26.2371 2.39201 26.0314 2.39178C25.5998 2.39151 25.1682 2.39191 24.7366 2.39276C24.1823 2.39379 23.6281 2.3932 23.0738 2.3921C22.6488 2.39145 22.2239 2.39165 21.799 2.39213C21.5945 2.39225 21.3901 2.3921 21.1857 2.39168C20.9004 2.39121 20.6152 2.39192 20.3299 2.39293C20.2447 2.39256 20.1596 2.3922 20.0718 2.39182C19.9557 2.39259 19.9557 2.39259 19.8371 2.39337C19.7696 2.39344 19.7021 2.39351 19.6326 2.39358C19.444 2.4027 19.444 2.4027 19.2846 2.59884Z" fill="white"/>
<path d="M18.6465 22.1981C19.0001 22.3803 19.2328 22.6489 19.3758 23.0185C19.3977 23.2804 19.3977 23.2804 19.3965 23.5871C19.3965 23.7021 19.3965 23.817 19.3965 23.9355C19.3955 24.0604 19.3946 24.1854 19.3936 24.3104C19.3933 24.4387 19.393 24.5669 19.3928 24.6951C19.3921 25.032 19.3904 25.3689 19.3883 25.7058C19.3865 26.0498 19.3856 26.3939 19.3847 26.7379C19.3829 27.4125 19.3793 28.087 19.3758 28.7616C20.4287 28.7616 21.4816 28.7616 22.5664 28.7616C22.5622 28.4081 22.5579 28.0546 22.5536 27.6904C22.5507 27.3468 22.5485 27.0032 22.5464 26.6595C22.5445 26.4213 22.542 26.1831 22.5389 25.9449C22.5344 25.6019 22.5324 25.2589 22.5308 24.9158C22.5289 24.8099 22.527 24.704 22.5251 24.5948C22.5249 23.8692 22.6185 23.3752 23.1101 22.8141C23.1695 22.765 23.2288 22.7159 23.29 22.6653C23.3491 22.6148 23.4082 22.5642 23.4691 22.5122C23.8337 22.2609 24.16 22.1753 24.5998 22.1716C24.6941 22.1704 24.7885 22.1693 24.8857 22.1681C25.0372 22.1678 25.0372 22.1678 25.1919 22.1675C25.3492 22.1666 25.3492 22.1666 25.5096 22.1656C25.7313 22.1647 25.953 22.1643 26.1746 22.1643C26.5126 22.1639 26.8504 22.1606 27.1883 22.1571C27.404 22.1566 27.6197 22.1562 27.8355 22.1561C27.936 22.1548 28.0365 22.1534 28.14 22.1521C28.8322 22.1562 29.3223 22.2568 29.8613 22.7219C29.9223 22.7982 29.9223 22.7982 29.9845 22.8761C30.0476 22.9521 30.0476 22.9521 30.112 23.0296C30.3873 23.4513 30.4302 23.8183 30.4355 24.3175C30.4368 24.4148 30.4368 24.4148 30.4382 24.514C30.4409 24.7274 30.4421 24.9409 30.4431 25.1544C30.4442 25.3034 30.4452 25.4525 30.4463 25.6015C30.4482 25.9137 30.4493 26.2259 30.4499 26.5381C30.4509 26.9371 30.4553 27.336 30.4605 27.735C30.4639 28.0428 30.4648 28.3506 30.4651 28.6585C30.4656 28.8055 30.4671 28.9526 30.4695 29.0996C30.4891 30.3918 30.4891 30.3918 30.146 30.8109C29.8208 31.118 29.4871 31.1643 29.0444 31.157C28.7265 31.1142 28.5461 30.9762 28.3094 30.7671C28.0758 30.3769 28.0021 30.0917 28.0049 29.6392C28.0049 29.5261 28.0049 29.413 28.005 29.2964C28.0064 29.1744 28.0078 29.0524 28.0092 28.9304C28.0098 28.8044 28.0101 28.6785 28.0104 28.5525C28.0115 28.2225 28.0141 27.8926 28.0172 27.5626C28.02 27.2252 28.0212 26.8879 28.0226 26.5506C28.0254 25.8898 28.0307 25.2291 28.036 24.5682C27.0131 24.5682 25.9903 24.5682 24.9365 24.5682C24.9387 24.8746 24.9408 25.1809 24.9429 25.4966C24.9444 25.7953 24.9455 26.0939 24.9466 26.3926C24.9475 26.5993 24.9487 26.8059 24.9503 27.0125C24.9525 27.3105 24.9535 27.6086 24.9543 27.9066C24.9553 27.9981 24.9562 28.0895 24.9572 28.1838C24.9573 28.9726 24.9066 29.6825 24.3896 30.3113C23.9228 30.7747 23.5096 31.0601 22.8316 31.0685C22.6965 31.0707 22.6965 31.0707 22.5586 31.0729C22.4621 31.0734 22.3656 31.0739 22.2662 31.0744C22.1658 31.0752 22.0654 31.076 21.962 31.0769C21.7497 31.0782 21.5374 31.079 21.325 31.0793C21.0023 31.0804 20.6797 31.0849 20.357 31.0895C20.1502 31.0904 19.9434 31.091 19.7365 31.0915C19.641 31.0932 19.5454 31.095 19.447 31.0969C18.7895 31.0929 18.2808 30.9623 17.7349 30.5848C17.1891 30.0182 16.9836 29.457 16.9806 28.6679C16.9802 28.6063 16.9797 28.5447 16.9792 28.4813C16.978 28.2793 16.978 28.0773 16.9783 27.8753C16.9779 27.7341 16.9775 27.5929 16.9771 27.4517C16.9764 27.1564 16.9764 26.8612 16.9769 26.566C16.9774 26.1881 16.9759 25.8103 16.9738 25.4325C16.9724 25.1411 16.9723 24.8498 16.9726 24.5585C16.9726 24.4192 16.9721 24.2799 16.9712 24.1406C16.9701 23.9458 16.9707 23.751 16.9717 23.5562C16.9717 23.4455 16.9716 23.3348 16.9716 23.2207C17.0189 22.8132 17.1615 22.5749 17.4672 22.3063C17.8635 22.1461 18.2255 22.1253 18.6465 22.1981Z" fill="white"/>
<path d="M18.7376 15.6346C19.1098 15.8564 19.2497 16.0467 19.3757 16.4551C19.394 16.7126 19.4035 16.9608 19.4031 17.2182C19.4035 17.2911 19.4039 17.364 19.4043 17.4391C19.4049 17.5929 19.4049 17.7467 19.4045 17.9005C19.4042 18.1347 19.4064 18.3689 19.4087 18.6032C19.4089 18.753 19.4089 18.9029 19.4088 19.0527C19.4097 19.1223 19.4105 19.1918 19.4114 19.2634C19.4076 19.6993 19.343 19.9977 19.1022 20.3749C18.7375 20.6594 18.5059 20.7712 18.0425 20.7396C17.673 20.6772 17.4492 20.5609 17.1879 20.2838C16.9427 19.9314 16.9761 19.5376 16.975 19.125C16.9744 19.0479 16.9737 18.9708 16.9731 18.8914C16.9722 18.7285 16.9718 18.5656 16.9718 18.4027C16.9714 18.1544 16.9681 17.9062 16.9646 17.6579C16.9641 17.4994 16.9637 17.3408 16.9636 17.1822C16.9616 17.0715 16.9616 17.0715 16.9596 16.9586C16.9635 16.4749 17.0497 16.2006 17.3702 15.8169C17.8186 15.4937 18.22 15.4942 18.7376 15.6346Z" fill="white"/>
<path d="M29.5856 15.6347C29.8972 15.7464 30.0751 15.8365 30.2822 16.095C30.4522 16.4642 30.447 16.7849 30.4456 17.1869C30.4461 17.2659 30.4465 17.3449 30.447 17.4263C30.4476 17.5929 30.4475 17.7596 30.4467 17.9262C30.4459 18.1804 30.4486 18.4343 30.4515 18.6884C30.4516 18.8507 30.4515 19.013 30.4513 19.1753C30.4528 19.2886 30.4528 19.2886 30.4544 19.4041C30.4485 19.8918 30.3641 20.1697 30.0414 20.5573C29.6587 20.8225 29.2125 20.8088 28.7652 20.7396C28.4634 20.5906 28.2722 20.3867 28.1145 20.0864C28.0126 19.7514 28.0081 19.4317 28.0085 19.0849C28.0081 19.014 28.0077 18.9431 28.0073 18.87C28.0068 18.7206 28.0067 18.5711 28.0071 18.4216C28.0074 18.1939 28.0053 17.9664 28.003 17.7387C28.0028 17.593 28.0027 17.4473 28.0028 17.3016C28.0019 17.2341 28.0011 17.1665 28.0002 17.0969C28.0041 16.663 28.0792 16.3674 28.3094 15.9994C28.7193 15.6371 29.0581 15.5484 29.5856 15.6347Z" fill="white"/>
<path d="M24.4238 15.7771C24.7976 16.1241 24.9202 16.4806 24.9719 16.9758C24.9723 17.0945 24.9726 17.2131 24.9729 17.3353C24.9731 17.3997 24.9734 17.464 24.9737 17.5303C24.9739 17.6655 24.9734 17.8006 24.9722 17.9357C24.9707 18.141 24.9722 18.3461 24.9739 18.5514C24.9738 18.6835 24.9734 18.8156 24.9729 18.9477C24.9726 19.0663 24.9723 19.1849 24.9719 19.3072C24.9221 19.7839 24.7944 20.1412 24.4637 20.5003C24.1339 20.6908 23.8585 20.7582 23.478 20.7395C23.0455 20.5898 22.8096 20.3954 22.5664 20.0103C22.5137 19.7356 22.5153 19.4663 22.518 19.1873C22.5176 19.1083 22.5173 19.0294 22.5169 18.948C22.5167 18.7813 22.5173 18.6147 22.5189 18.448C22.5208 18.1939 22.5189 17.94 22.5166 17.6859C22.5168 17.5236 22.5173 17.3612 22.518 17.1989C22.5169 17.0857 22.5169 17.0857 22.5157 16.9701C22.5236 16.4831 22.6089 16.204 22.931 15.8169C23.3899 15.5032 23.9386 15.5525 24.4238 15.7771Z" fill="white"/>
<path d="M5.70178 22.5627C6.69451 22.5627 7.68723 22.5627 8.71004 22.5627C8.71004 23.5555 8.71004 24.5482 8.71004 25.571C7.71732 25.571 6.72459 25.571 5.70178 25.571C5.70178 24.5783 5.70178 23.5856 5.70178 22.5627Z" fill="white"/>
<path d="M22.5663 5.69824C23.559 5.69824 24.5517 5.69824 25.5745 5.69824C25.5745 6.69097 25.5745 7.68369 25.5745 8.7065C24.5818 8.7065 23.5891 8.7065 22.5663 8.7065C22.5663 7.71378 22.5663 6.72105 22.5663 5.69824Z" fill="white"/>
<path d="M5.70178 5.69824C6.69451 5.69824 7.68723 5.69824 8.71004 5.69824C8.71004 6.69097 8.71004 7.68369 8.71004 8.7065C7.71732 8.7065 6.72459 8.7065 5.70178 8.7065C5.70178 7.71378 5.70178 6.72105 5.70178 5.69824Z" fill="white"/>
<path d="M1.41733 0.50217L1.23501 0.411011L0.961534 0.59333C0.701653 0.877386 0.505737 1.01973 0.505737 1.41376L1.41733 0.50217Z" fill="white"/>
</svg>
